<?xml version="1.0" standalone="no"?>
<!DOCTYPE svg PUBLIC "-//W3C//DTD SVG 20010904//EN"
 "http://www.w3.org/TR/2001/REC-SVG-20010904/DTD/svg10.dtd">
<svg version="1.0" xmlns="http://www.w3.org/2000/svg"
 width="2880.000000pt" height="1766.000000pt" viewBox="0 0 2880.000000 1766.000000"
 preserveAspectRatio="xMidYMid meet">

<g transform="translate(0.000000,1766.000000) scale(0.100000,-0.100000)"
fill="#000000" stroke="none">
<path d="M4480 7625 l0 -25 115 0 115 0 0 25 0 25 -115 0 -115 0 0 -25z"/>
<path d="M22250 7626 c0 -22 -5 -25 -60 -31 -54 -6 -60 -9 -60 -30 0 -21 -6
-24 -54 -30 -50 -7 -55 -10 -58 -34 -2 -20 -9 -27 -30 -29 -27 -3 -28 -6 -28
-58 0 -53 0 -54 -30 -54 l-30 0 0 -60 0 -60 -30 0 -30 0 0 -90 0 -90 -30 0
c-25 0 -30 -4 -30 -25 0 -25 1 -25 85 -25 83 0 85 1 85 24 0 21 6 24 53 30 28
3 71 6 95 6 38 0 42 2 42 25 0 24 3 25 63 25 34 0 86 3 115 6 46 6 52 9 52 30
0 23 3 24 69 24 37 0 89 3 115 6 40 6 46 10 46 30 0 20 5 24 30 24 27 0 30 3
30 30 0 27 -3 30 -30 30 l-30 0 0 60 0 60 -30 0 c-30 0 -30 1 -30 55 0 52 -1
55 -25 55 -21 0 -25 5 -25 30 0 28 -3 30 -35 30 -32 0 -35 2 -35 30 l0 30 -85
0 c-83 0 -85 -1 -85 -24z"/>
<path d="M8650 7505 c0 -32 2 -35 30 -35 25 0 30 -4 30 -25 0 -23 4 -25 44
-25 24 0 64 -3 90 -6 40 -6 46 -10 46 -30 0 -22 4 -24 48 -24 26 0 64 -3 85
-6 31 -6 37 -11 37 -30 0 -23 -4 -24 -60 -24 l-60 0 0 -30 0 -30 65 0 65 0 0
30 c0 25 4 30 25 30 21 0 25 5 25 30 0 27 3 30 30 30 27 0 30 3 30 30 0 27 -3
30 -30 30 -25 0 -30 4 -30 24 0 19 -6 24 -37 30 -21 3 -59 6 -85 6 -44 0 -48
2 -48 24 0 21 -6 24 -52 30 -29 3 -97 6 -150 6 l-98 0 0 -35z"/>
<path d="M5890 7505 c0 -20 5 -25 25 -25 20 0 25 5 25 25 0 20 -5 25 -25 25
-20 0 -25 -5 -25 -25z"/>
<path d="M12628 7473 c-32 -4 -38 -8 -38 -29 0 -19 -5 -24 -25 -24 -20 0 -25
5 -25 25 0 21 -5 25 -30 25 -25 0 -30 -4 -30 -25 0 -21 -5 -25 -30 -25 -26 0
-30 -3 -30 -29 0 -28 -2 -29 -60 -36 -55 -6 -60 -9 -60 -31 0 -23 -3 -24 -60
-24 l-60 0 0 -85 0 -85 -60 0 c-57 0 -60 1 -60 25 0 24 -3 25 -55 25 -54 0
-55 0 -55 30 0 27 -3 30 -30 30 -27 0 -30 3 -30 30 l0 30 -175 0 -175 0 0 -30
c0 -25 4 -30 25 -30 21 0 25 -5 25 -30 l0 -30 -85 0 c-84 0 -85 0 -85 -25 0
-24 2 -25 69 -25 37 0 89 -3 115 -6 40 -6 46 -10 46 -30 l0 -24 153 -2 c83 -2
177 -1 207 0 30 2 83 0 118 -3 57 -6 62 -8 62 -31 0 -24 1 -24 103 -24 56 0
159 -3 230 -7 125 -6 127 -7 127 -30 0 -23 0 -23 134 -23 73 0 154 -3 180 -6
40 -6 46 -10 46 -30 l0 -24 235 0 235 0 0 -30 0 -29 118 -3 117 -3 3 -27 3
-28 145 0 144 0 0 -24 c0 -20 6 -24 46 -30 26 -3 93 -6 150 -6 102 0 104 0
104 -24 0 -22 4 -23 83 -29 45 -4 110 -7 145 -7 59 0 62 -1 62 -24 0 -20 6
-24 46 -30 26 -3 78 -6 115 -6 67 0 69 -1 69 -25 0 -24 3 -25 58 -25 33 0 100
-3 150 -6 87 -7 92 -8 92 -29 0 -22 5 -23 115 -30 113 -7 115 -7 115 -31 l0
-24 120 0 120 0 0 -30 0 -30 120 0 c119 0 120 0 120 23 0 24 0 24 173 30 94 4
398 7 675 7 l502 0 0 25 c0 20 5 25 25 25 20 0 25 -5 25 -25 0 -24 2 -25 65
-25 61 0 65 1 65 23 l0 24 707 6 c388 4 1009 7 1380 7 l673 0 0 24 c0 20 6 24
46 30 26 3 66 6 90 6 40 0 44 2 44 24 0 24 2 24 115 31 110 7 115 8 115 30 0
19 7 23 46 29 26 3 66 6 90 6 40 0 44 2 44 25 0 24 2 24 88 27 87 3 87 3 90
31 l3 27 90 0 89 0 0 30 0 30 109 0 110 0 3 28 c3 27 3 27 89 30 l87 3 6 38
c3 22 3 59 0 84 l-6 44 -82 7 c-44 3 -96 6 -113 6 l-33 0 0 -60 0 -60 -60 0
c-57 0 -60 1 -60 25 0 25 -1 25 -90 25 -89 0 -90 0 -90 -24 0 -22 -5 -25 -55
-31 -49 -7 -55 -10 -55 -31 0 -20 -5 -24 -30 -24 -25 0 -30 4 -30 25 0 24 -3
25 -60 25 l-60 0 2 -57 3 -58 -32 -3 c-27 -3 -33 -7 -33 -28 0 -23 -3 -24 -60
-24 -57 0 -60 1 -60 25 0 20 -5 25 -25 25 -20 0 -25 -5 -25 -25 0 -25 -1 -25
-90 -25 l-90 0 0 -30 0 -30 -84 0 -85 0 -3 -27 c-3 -27 -6 -28 -65 -31 -58 -3
-63 -5 -63 -26 0 -19 -7 -24 -37 -30 -21 -3 -59 -6 -85 -6 -44 0 -48 -2 -48
-25 0 -24 -3 -25 -60 -25 l-60 0 0 54 c0 52 1 55 28 58 22 2 28 8 30 36 3 26
7 32 28 32 19 0 24 5 24 25 0 24 -3 25 -55 25 -54 0 -55 0 -55 -30 l0 -30 -60
0 -60 0 0 -30 0 -30 -90 0 -90 0 0 30 c0 25 -4 30 -25 30 -21 0 -25 5 -25 30
0 27 -3 30 -30 30 -27 0 -30 3 -30 30 l0 31 -117 -3 -118 -3 -3 -27 c-3 -27
-6 -28 -57 -28 l-53 0 -7 -55 c-6 -49 -9 -55 -29 -55 -19 0 -25 7 -30 38 -3
20 -6 56 -6 80 0 38 -3 42 -24 42 -21 0 -24 5 -30 59 l-7 60 -52 6 c-29 3 -92
5 -142 3 -90 -3 -90 -3 -93 -30 -3 -27 -4 -27 -90 -30 -87 -3 -87 -3 -90 -30
-3 -27 -6 -28 -58 -28 -53 0 -54 0 -54 -30 l0 -30 -85 0 -85 0 0 30 c0 28 -3
30 -35 30 -32 0 -35 -2 -35 -30 0 -27 -3 -30 -30 -30 -27 0 -30 -3 -30 -30 0
-27 -3 -30 -30 -30 -25 0 -30 -4 -30 -25 0 -20 -5 -25 -25 -25 -20 0 -25 5
-25 24 0 21 -6 25 -32 28 -28 2 -34 8 -36 31 -3 26 -6 27 -58 27 -53 0 -54 0
-54 30 l0 30 -114 0 -114 0 -7 60 c-6 55 -9 60 -31 60 -19 0 -24 5 -24 24 0
33 -11 38 -70 30 -43 -6 -50 -10 -50 -29 0 -21 -4 -22 -137 -28 -75 -4 -167
-7 -205 -7 -66 0 -68 -1 -68 -25 0 -22 -4 -25 -35 -25 -32 0 -35 -2 -35 -30 0
-25 -4 -30 -24 -30 -20 0 -24 -6 -30 -46 -3 -26 -6 -67 -6 -92 l0 -45 -37 7
c-21 3 -46 6 -55 6 -12 0 -18 8 -18 25 0 29 18 28 -357 25 l-233 -2 0 61 0 61
-30 0 c-27 0 -30 3 -30 30 0 25 -4 30 -24 30 -22 0 -25 5 -31 55 -7 52 -9 55
-36 55 -26 0 -29 4 -29 30 0 28 -3 30 -37 30 -21 0 -62 3 -90 6 -47 6 -53 9
-53 30 0 23 -2 24 -85 24 -84 0 -85 0 -85 -25 0 -23 -4 -25 -44 -25 -24 0 -64
-3 -90 -6 -39 -6 -46 -10 -46 -29 0 -31 -32 -35 -267 -35 l-193 0 0 -30 c0
-27 -3 -30 -30 -30 -27 0 -30 -3 -30 -31 0 -28 -2 -30 -32 -27 -28 2 -34 8
-36 31 -3 21 -9 27 -28 27 -20 0 -24 5 -24 30 0 27 -3 30 -30 30 -26 0 -30 3
-30 29 0 28 -2 29 -60 36 -55 6 -60 9 -60 31 0 20 -5 24 -30 24 -27 0 -30 3
-30 30 0 25 -4 30 -25 30 -21 0 -25 5 -25 30 0 27 -3 30 -30 30 -27 0 -30 3
-30 30 0 27 -3 30 -30 30 -27 0 -30 3 -30 30 l0 30 -65 0 c-63 0 -65 1 -65 25
l0 25 -115 0 c-115 0 -115 0 -115 -24 0 -22 5 -25 60 -31 l60 -7 0 -84 0 -84
-60 0 -60 0 0 30 c0 27 3 30 30 30 27 0 30 3 30 30 l0 30 -90 0 c-88 0 -90 1
-90 24 0 19 -6 24 -37 30 -67 11 -73 9 -73 -24 0 -28 -3 -30 -35 -30 -32 0
-35 -2 -35 -30 0 -25 -4 -30 -25 -30 -21 0 -25 -5 -25 -30 0 -27 -3 -30 -30
-30 -30 0 -30 -1 -30 -55 0 -54 0 -55 -30 -55 -25 0 -30 4 -30 25 0 21 -5 25
-30 25 -27 0 -30 3 -30 29 0 25 -4 30 -27 33 -22 2 -29 9 -31 31 -3 26 -6 27
-58 27 -53 0 -54 0 -54 30 0 27 -3 30 -30 30 -27 0 -30 3 -30 30 0 27 -3 30
-30 30 -25 0 -30 4 -30 24 0 22 -5 25 -60 31 -55 6 -60 9 -60 31 0 20 -5 24
-30 24 -25 0 -30 -4 -30 -25 0 -20 -5 -25 -24 -25 -19 0 -25 6 -28 28 -3 26
-6 27 -58 28 -30 1 -72 -1 -92 -3z m142 -83 c0 -25 -4 -30 -25 -30 -21 0 -25
5 -25 30 0 25 4 30 25 30 21 0 25 -5 25 -30z m120 -5 c0 -21 -5 -25 -30 -25
-25 0 -30 4 -30 25 0 21 5 25 30 25 25 0 30 -4 30 -25z m-360 -115 c0 -30 -1
-30 -55 -30 -54 0 -55 0 -55 30 0 30 1 30 55 30 54 0 55 0 55 -30z m1300 -115
c0 -23 -4 -25 -47 -25 -27 0 -65 -3 -85 -6 -37 -6 -38 -6 -38 25 l0 31 85 0
c84 0 85 0 85 -25z m1103 -275 c11 0 17 -8 17 -25 0 -24 -3 -25 -60 -25 -56 0
-60 1 -60 23 0 33 10 40 50 33 19 -3 43 -6 53 -6z m255 -82 c3 -25 0 -28 -27
-28 -28 0 -31 3 -31 31 0 27 3 30 28 27 21 -2 28 -9 30 -30z m-418 -58 c0 -27
3 -30 30 -30 25 0 30 -4 30 -25 0 -24 -3 -25 -55 -25 l-55 0 0 55 c0 52 1 55
25 55 21 0 25 -5 25 -30z"/>
<path d="M6950 7445 c0 -20 5 -25 25 -25 20 0 25 5 25 25 0 20 -5 25 -25 25
-20 0 -25 -5 -25 -25z"/>
<path d="M9718 7413 c-54 -4 -58 -6 -58 -28 0 -23 -3 -25 -52 -25 -29 0 -70
-3 -90 -6 -32 -6 -38 -11 -38 -30 0 -23 -2 -24 -90 -24 l-90 0 0 -30 0 -30
145 0 145 0 0 -25 c0 -24 3 -25 60 -25 57 0 60 1 60 25 0 21 5 25 30 25 25 0
30 -4 30 -25 0 -24 3 -25 60 -25 57 0 60 1 60 25 0 20 5 25 25 25 20 0 25 -5
25 -25 0 -24 2 -25 68 -25 37 0 104 -3 150 -7 l82 -6 0 62 0 61 -30 0 c-27 0
-30 3 -30 30 0 30 -1 30 -55 30 -52 0 -55 1 -55 25 0 17 -6 25 -17 26 -75 3
-289 5 -335 2z"/>
<path d="M7300 7325 c0 -20 5 -25 25 -25 20 0 25 5 25 25 0 20 -5 25 -25 25
-20 0 -25 -5 -25 -25z"/>
<path d="M12070 7210 c0 -27 3 -30 30 -30 27 0 30 3 30 30 0 27 -3 30 -30 30
-27 0 -30 -3 -30 -30z"/>
<path d="M20250 7095 c0 -20 5 -25 25 -25 20 0 25 5 25 25 0 20 -5 25 -25 25
-20 0 -25 -5 -25 -25z"/>
<path d="M17020 7035 c0 -24 3 -25 55 -25 52 0 55 1 55 25 0 24 -3 25 -55 25
-52 0 -55 -1 -55 -25z"/>
<path d="M16430 6795 c0 -20 5 -25 25 -25 20 0 25 5 25 25 0 20 -5 25 -25 25
-20 0 -25 -5 -25 -25z"/>
<path d="M28490 6565 c0 -20 5 -25 25 -25 20 0 25 5 25 25 0 20 -5 25 -25 25
-20 0 -25 -5 -25 -25z"/>
<path d="M28788 6563 c-2 -22 -9 -29 -30 -31 -24 -3 -27 -8 -34 -58 -6 -48 -9
-54 -30 -54 -20 0 -24 -5 -24 -30 0 -27 -3 -30 -29 -30 -26 0 -30 -4 -33 -32
-2 -28 -8 -34 -30 -36 -27 -3 -28 -6 -28 -58 0 -53 0 -54 -30 -54 l-30 0 0 90
0 90 30 0 30 0 0 60 0 60 -30 0 c-27 0 -30 -3 -30 -30 0 -27 -3 -30 -30 -30
-27 0 -30 -3 -30 -30 0 -27 -3 -30 -30 -30 l-30 0 0 -60 0 -60 -30 0 c-27 0
-30 -3 -30 -30 0 -25 -4 -30 -25 -30 -21 0 -25 5 -25 30 0 28 -3 30 -35 30
-32 0 -35 -2 -35 -30 0 -25 -4 -30 -25 -30 -21 0 -25 -5 -25 -30 0 -27 -3 -30
-30 -30 -27 0 -30 -3 -30 -30 0 -27 -3 -30 -30 -30 l-30 0 0 65 c0 63 1 65 25
65 20 0 25 5 25 25 0 24 -3 25 -55 25 l-55 0 0 -60 0 -60 -30 0 c-30 0 -30 -1
-30 -55 0 -51 -2 -55 -24 -55 -21 0 -24 6 -30 50 -8 59 -3 70 30 70 19 0 24 5
24 25 0 24 -3 25 -54 25 -52 0 -55 -1 -58 -27 -2 -22 -9 -29 -30 -31 -21 -3
-27 -9 -30 -30 -2 -21 -9 -28 -30 -30 -25 -3 -28 -7 -34 -63 -6 -54 -9 -59
-30 -59 -23 0 -24 4 -24 60 0 57 1 60 25 60 24 0 25 3 25 60 0 57 -1 60 -25
60 -24 0 -25 -3 -25 -60 l0 -60 -30 0 -30 0 0 -115 0 -115 30 0 c25 0 30 4 30
24 0 22 4 23 83 29 45 4 110 7 145 7 59 0 62 1 62 24 0 23 2 24 120 31 118 7
120 8 120 31 0 22 4 24 53 24 30 0 95 3 145 6 88 7 92 8 92 30 0 23 3 24 74
24 40 0 94 3 120 6 40 6 46 10 46 30 0 23 3 24 65 24 l64 0 -1 235 c-1 129 -3
235 -4 235 -2 0 -4 -12 -6 -27z"/>
<path d="M27315 5945 c-6 -60 -8 -65 -31 -65 -22 0 -24 -3 -24 -55 0 -52 2
-55 24 -55 19 0 25 6 28 28 2 21 9 28 31 30 l27 3 0 90 c0 87 -1 89 -24 89
-22 0 -24 -5 -31 -65z"/>
<path d="M290 5855 c0 -24 -3 -25 -60 -25 l-60 0 0 -30 c0 -30 -1 -30 -54 -30
-52 0 -55 1 -58 28 -2 21 -9 28 -30 30 l-28 3 0 -2915 0 -2916 14400 0 14400
0 -1 2208 c-1 1531 -5 2189 -12 2150 -9 -50 -13 -58 -33 -58 -20 0 -23 -7 -29
-60 -6 -54 -9 -60 -30 -60 -21 0 -24 -6 -30 -60 -6 -55 -9 -60 -31 -60 -23 0
-24 -3 -24 -60 l0 -60 -30 0 -30 0 0 -85 0 -85 -30 0 -30 0 0 -85 0 -85 -30 0
c-27 0 -30 -3 -30 -30 0 -25 -4 -30 -25 -30 -24 0 -25 3 -25 55 0 52 1 55 25
55 l24 0 3 148 3 147 28 3 27 3 0 205 0 204 -30 0 c-27 0 -30 -3 -30 -30 0
-27 -3 -30 -30 -30 -27 0 -30 -3 -30 -30 0 -25 -4 -30 -24 -30 -22 0 -25 -5
-31 -60 -6 -54 -9 -60 -30 -60 -20 0 -23 -6 -30 -55 -6 -49 -9 -55 -30 -55
-19 0 -24 -6 -27 -32 -2 -27 -8 -34 -29 -36 -24 -3 -27 -8 -34 -58 -6 -49 -9
-54 -31 -54 -23 0 -24 -3 -24 -60 l0 -60 -30 0 -30 0 0 -60 0 -61 -57 3 -57 3
0 115 c2 237 1 230 29 230 l25 0 0 180 0 180 24 0 c28 0 36 32 36 152 0 76 0
77 28 80 27 3 27 3 30 91 l3 87 29 0 c30 0 30 0 30 60 l0 60 -30 0 c-27 0 -30
-3 -30 -30 0 -27 -3 -30 -30 -30 l-30 0 0 -60 0 -60 -30 0 c-30 0 -30 -1 -30
-54 0 -52 -1 -55 -27 -58 -23 -2 -29 -8 -31 -35 -3 -27 -8 -33 -26 -33 -19 0
-25 -7 -30 -37 -3 -21 -6 -59 -6 -85 0 -43 -2 -47 -27 -50 -27 -3 -28 -6 -31
-60 -3 -53 -5 -58 -27 -58 -21 0 -24 -6 -30 -60 -6 -55 -9 -60 -31 -60 -23 0
-24 -3 -24 -67 0 -38 -3 -92 -6 -120 -6 -47 -9 -53 -30 -53 -24 0 -24 -2 -24
-99 0 -54 -3 -119 -6 -145 -6 -40 -10 -46 -30 -46 -23 0 -23 -2 -26 -117 l-3
-118 -27 -3 -28 -3 0 330 0 331 25 0 c20 0 25 5 25 25 0 20 -5 25 -25 25 -20
0 -25 -5 -25 -25 0 -21 -5 -25 -30 -25 l-30 0 0 -60 0 -60 -30 0 c-28 0 -30
-3 -30 -35 0 -30 -3 -35 -24 -35 -22 0 -25 -5 -31 -55 -7 -52 -9 -55 -36 -55
-26 0 -29 -4 -29 -30 0 -25 -4 -30 -24 -30 -19 0 -25 -6 -28 -27 -2 -22 -9
-29 -29 -31 -24 -3 -27 -8 -34 -58 -6 -49 -9 -54 -31 -54 -20 0 -24 -5 -24
-30 0 -27 -3 -30 -30 -30 -27 0 -30 -3 -30 -30 0 -27 -3 -30 -30 -30 l-30 0 0
84 0 85 28 3 c26 3 27 6 30 61 3 56 4 57 32 57 27 0 30 3 30 30 0 25 4 30 25
30 21 0 25 5 25 30 l0 30 -85 0 -85 0 0 114 0 115 28 3 27 3 3 118 3 117 29 0
c30 0 30 0 30 60 0 57 1 60 25 60 24 0 25 3 25 55 0 52 -1 55 -25 55 -21 0
-25 -5 -25 -30 0 -26 -3 -30 -29 -30 -27 0 -29 -3 -36 -55 -6 -50 -9 -55 -31
-55 -20 0 -24 -5 -24 -30 0 -27 -3 -30 -30 -30 l-30 0 0 -60 0 -60 -30 0 c-30
0 -30 -1 -30 -54 0 -52 -1 -55 -27 -58 -27 -3 -28 -6 -31 -60 -3 -57 -4 -58
-32 -58 -28 0 -30 3 -30 39 0 21 3 59 6 85 6 40 10 46 30 46 23 0 24 4 24 60
l0 60 30 0 30 0 0 90 0 90 30 0 30 0 0 85 0 85 30 0 30 0 0 90 c0 88 1 90 24
90 21 0 24 6 30 50 8 59 3 70 -30 70 -20 0 -24 -5 -24 -29 0 -27 -3 -29 -54
-35 l-55 -7 -7 -55 c-6 -51 -8 -54 -35 -54 -26 0 -29 -4 -29 -30 0 -27 -3 -30
-30 -30 -30 0 -30 -1 -30 -54 0 -52 -1 -55 -27 -58 -23 -2 -29 -8 -31 -35 -3
-27 -7 -33 -28 -33 -23 0 -24 -3 -24 -55 0 -54 0 -55 -30 -55 l-30 0 0 -60 0
-60 -30 0 -30 0 0 -85 0 -85 -30 0 -30 0 0 -89 0 -90 -27 -3 c-28 -3 -28 -3
-31 -90 -3 -85 -4 -88 -26 -88 -20 0 -24 -6 -30 -46 -3 -26 -6 -91 -6 -145 0
-97 0 -99 -24 -99 -20 0 -24 -6 -30 -46 -3 -26 -6 -80 -6 -120 0 -71 -1 -74
-24 -74 -20 0 -24 6 -30 46 -3 26 -6 118 -6 205 l0 159 -24 0 c-22 0 -23 4
-30 92 -3 50 -6 129 -6 175 0 81 -1 83 -24 83 -23 0 -24 2 -31 120 -7 118 -8
120 -31 120 -20 0 -24 5 -24 30 0 27 -3 30 -30 30 l-29 0 -3 -87 c-3 -88 -3
-88 -30 -91 l-28 -3 0 -175 0 -174 -54 0 -54 0 -7 60 c-7 58 -8 60 -36 60 -26
0 -29 -4 -29 -30 0 -25 -4 -30 -25 -30 -22 0 -25 -5 -31 -60 -6 -53 -9 -60
-29 -60 -19 0 -23 -7 -29 -46 -3 -26 -6 -66 -6 -90 0 -40 -2 -44 -25 -44 -22
0 -25 -4 -25 -39 0 -21 -3 -59 -6 -85 -6 -43 -9 -46 -35 -46 -24 0 -29 4 -29
25 0 20 -5 25 -24 25 -22 0 -23 4 -28 83 -3 46 -3 165 0 265 l5 181 26 3 c25
3 26 6 29 66 3 58 4 62 27 62 17 0 25 6 25 18 0 9 3 34 6 54 6 37 6 38 -25 38
-31 0 -31 0 -31 -55 0 -54 -1 -55 -29 -55 -27 0 -29 -2 -35 -60 -6 -55 -9 -60
-31 -60 -24 0 -25 -3 -25 -60 l0 -60 -30 0 -30 0 0 -60 0 -60 -30 0 -30 0 0
-60 c0 -56 -1 -60 -24 -60 -20 0 -24 -6 -30 -46 -3 -26 -6 -64 -6 -85 0 -34
-3 -39 -24 -39 -22 0 -25 -5 -31 -60 -6 -54 -9 -60 -30 -60 -20 0 -23 -6 -29
-54 -7 -52 -8 -54 -44 -60 -78 -13 -72 -30 -72 204 l0 210 25 0 c20 0 25 5 25
25 0 20 -5 25 -25 25 -20 0 -25 -5 -25 -25 0 -21 -5 -25 -30 -25 -30 0 -30 -1
-30 -52 0 -29 -3 -70 -6 -90 -6 -32 -11 -38 -30 -38 -20 0 -24 -5 -24 -30 0
-25 -4 -30 -24 -30 -19 0 -25 6 -28 28 -2 22 -8 28 -35 30 -27 3 -33 8 -33 26
0 19 -7 25 -37 30 -21 3 -62 6 -90 6 -50 0 -53 2 -53 25 0 23 4 25 44 25 24 0
64 3 90 6 39 6 46 10 46 29 0 20 7 23 60 29 55 6 60 9 60 31 l0 25 -150 0
-150 0 0 -25 c0 -22 -4 -25 -39 -25 -21 0 -59 -3 -85 -6 -39 -6 -46 -10 -46
-29 0 -21 -6 -24 -60 -30 -54 -6 -60 -9 -60 -30 0 -22 -5 -24 -57 -27 -55 -3
-58 -4 -61 -30 -3 -24 -8 -28 -33 -28 -27 0 -30 3 -27 28 2 21 9 28 30 30 21
3 27 9 30 30 2 22 9 28 36 30 26 3 32 7 32 28 0 23 3 24 55 24 54 0 55 0 55
30 l0 30 -84 0 -85 0 -3 -27 c-2 -23 -8 -29 -35 -31 -27 -3 -33 -8 -33 -26 0
-21 -6 -24 -55 -31 -50 -6 -55 -9 -55 -31 0 -20 -5 -24 -30 -24 -27 0 -30 -3
-30 -30 0 -27 -3 -30 -30 -30 -27 0 -30 -3 -30 -30 0 -27 -3 -30 -30 -30 -27
0 -30 -3 -30 -30 l0 -30 -60 0 -61 0 3 58 c3 54 4 57 31 60 23 3 27 8 27 33 0
26 3 29 30 29 27 0 30 3 30 30 0 27 3 30 30 30 27 0 30 3 30 30 0 27 3 30 31
30 27 0 30 3 27 28 -3 26 -4 27 -60 24 l-58 -3 0 30 c0 28 3 31 30 31 27 0 30
3 30 30 0 27 3 30 30 30 27 0 30 3 30 30 0 30 1 30 55 30 51 0 55 2 55 24 0
19 -6 24 -37 30 -67 11 -73 9 -73 -24 l0 -30 -60 0 -60 0 0 -30 c0 -27 -3 -30
-30 -30 -25 0 -30 -4 -30 -24 0 -22 -5 -25 -54 -31 -50 -7 -55 -10 -58 -34 -2
-20 -9 -27 -30 -29 -21 -3 -27 -9 -30 -30 -2 -21 -9 -28 -30 -30 -21 -3 -27
-9 -30 -30 -2 -21 -9 -28 -30 -30 -21 -3 -27 -9 -30 -30 -2 -21 -9 -28 -30
-30 -24 -3 -28 -8 -28 -33 0 -26 -3 -29 -30 -29 -30 0 -30 -1 -30 -55 0 -54 0
-55 -30 -55 -27 0 -30 -3 -30 -30 0 -27 -3 -30 -30 -30 -30 0 -30 -1 -30 -54
0 -52 -1 -55 -27 -58 -23 -2 -29 -8 -31 -35 l-3 -33 -145 0 -144 0 0 -25 0
-25 -205 0 -205 0 0 25 c0 21 -5 25 -30 25 -25 0 -30 -4 -30 -25 l0 -25 -120
0 -120 0 0 24 c0 22 5 25 60 31 55 6 60 9 60 31 0 23 -3 24 -60 24 -57 0 -60
-1 -60 -25 0 -22 -5 -25 -60 -31 -55 -6 -60 -9 -60 -30 0 -22 -4 -24 -55 -24
-52 0 -55 1 -55 25 0 21 5 25 30 25 27 0 30 3 30 29 0 25 4 30 28 33 21 2 28
9 30 31 3 26 6 27 58 27 53 0 54 1 54 29 0 28 2 29 60 36 55 6 60 9 60 31 0
23 -3 24 -60 24 l-60 0 0 -30 0 -30 -60 0 -60 0 0 -30 c0 -30 -1 -30 -55 -30
-54 0 -55 0 -55 -30 0 -27 -3 -30 -30 -30 -25 0 -30 -4 -30 -25 0 -21 -5 -25
-30 -25 -27 0 -30 -3 -30 -30 0 -27 -3 -30 -30 -30 -27 0 -30 -3 -30 -30 0
-27 -3 -30 -30 -30 -33 0 -35 6 -24 72 6 32 11 38 30 38 20 0 24 5 24 30 0 27
3 30 30 30 27 0 30 3 30 30 0 27 3 30 30 30 27 0 30 3 30 30 0 27 3 30 30 30
27 0 30 3 30 30 0 27 3 30 30 30 27 0 30 3 30 30 0 27 3 30 30 30 27 0 30 3
30 30 0 27 3 30 30 30 25 0 30 4 30 25 0 21 -5 25 -30 25 -25 0 -30 -4 -30
-24 0 -21 -6 -25 -32 -28 -28 -2 -34 -8 -36 -30 -3 -27 -6 -28 -58 -28 -53 0
-54 0 -54 -30 0 -27 -3 -30 -30 -30 -27 0 -30 -3 -30 -30 0 -27 -3 -30 -30
-30 -27 0 -30 -3 -30 -30 0 -27 -3 -30 -30 -30 l-30 0 0 60 0 60 30 0 c27 0
30 3 30 30 0 27 3 30 30 30 27 0 30 3 30 30 0 27 3 30 30 30 25 0 30 4 30 25
0 21 -5 25 -30 25 -25 0 -30 -4 -30 -25 0 -21 -5 -25 -30 -25 -27 0 -30 -3
-30 -30 0 -27 -3 -30 -30 -30 -27 0 -30 -3 -30 -30 0 -27 -3 -30 -30 -30 -27
0 -30 -3 -30 -30 0 -25 -4 -30 -24 -30 -19 0 -25 -6 -28 -27 -2 -22 -9 -29
-29 -31 -24 -3 -27 -8 -34 -58 -6 -49 -9 -54 -31 -54 -20 0 -24 -5 -24 -30 0
-27 -3 -30 -30 -30 -27 0 -30 -3 -30 -30 l0 -30 -60 0 -60 0 0 30 c0 25 4 30
25 30 20 0 25 5 25 25 0 20 -5 25 -25 25 -20 0 -25 -5 -25 -24 0 -22 -5 -25
-60 -31 -54 -6 -60 -9 -60 -30 0 -19 -7 -23 -46 -29 -72 -9 -74 -9 -74 24 0
27 -3 30 -30 30 -25 0 -30 -4 -30 -25 0 -22 -4 -24 -57 -27 -55 -3 -58 -4 -61
-30 -2 -18 -9 -28 -20 -28 -9 0 -34 -3 -54 -6 -37 -6 -38 -6 -38 25 0 31 0 31
-55 31 -52 0 -55 -1 -55 -25 0 -23 -4 -24 -62 -27 -60 -3 -63 -4 -66 -30 -3
-22 -9 -28 -28 -28 -22 0 -24 3 -24 55 0 54 0 55 -30 55 -25 0 -30 -4 -30 -24
0 -21 -5 -24 -60 -30 -55 -6 -60 -9 -60 -31 0 -21 -5 -25 -30 -25 -30 0 -30 1
-30 55 0 54 0 55 -30 55 -25 0 -30 -4 -30 -25 0 -24 -3 -25 -60 -25 l-60 0 0
-30 0 -30 -85 0 c-83 0 -85 0 -85 24 0 22 5 25 55 31 l55 7 0 54 c0 51 -1 54
-25 54 -20 0 -25 -5 -25 -23 0 -23 -4 -24 -97 -30 -54 -4 -122 -7 -150 -7 -50
0 -53 -2 -53 -25 0 -21 -5 -25 -30 -25 -27 0 -30 -3 -30 -30 0 -25 -4 -30 -25
-30 -24 0 -25 3 -25 54 0 52 1 55 28 58 21 2 28 9 30 30 3 24 8 27 58 34 48 6
54 9 54 30 0 23 -3 24 -60 24 -57 0 -60 -1 -60 -24 0 -22 -5 -25 -55 -31 -49
-7 -55 -10 -55 -31 0 -20 -5 -24 -30 -24 -26 0 -30 -3 -30 -29 0 -28 -2 -29
-60 -36 -55 -6 -60 -9 -60 -31 0 -20 -5 -24 -30 -24 -27 0 -30 3 -30 30 0 27
3 30 30 30 27 0 30 3 30 30 0 25 4 30 24 30 19 0 24 6 30 38 11 66 9 72 -24
72 -25 0 -30 -4 -30 -24 0 -22 -5 -25 -60 -31 -54 -6 -60 -9 -60 -30 0 -18 -6
-24 -27 -27 -22 -2 -29 -9 -31 -30 -3 -24 -8 -28 -33 -28 -29 0 -29 1 -29 55
0 54 0 55 30 55 27 0 30 3 30 30 0 27 3 30 30 30 27 0 30 3 30 30 0 27 -3 30
-30 30 -27 0 -30 -3 -30 -30 0 -27 -3 -30 -30 -30 -27 0 -30 -3 -30 -30 0 -27
-3 -30 -30 -30 -25 0 -30 -4 -30 -25 0 -20 -5 -25 -25 -25 -21 0 -25 5 -25 30
0 25 4 30 24 30 19 0 25 6 28 28 2 21 9 28 30 30 21 3 27 9 30 30 2 21 9 28
30 30 21 3 27 9 30 30 2 21 9 28 31 30 21 3 27 9 27 27 0 18 6 24 28 27 21 2
28 9 30 31 3 23 8 27 33 27 26 0 29 3 29 30 l0 30 -60 0 -60 0 0 -30 c0 -27
-3 -30 -30 -30 -27 0 -30 -3 -30 -30 0 -30 -1 -30 -54 -30 -52 0 -55 -1 -58
-27 -2 -22 -9 -29 -30 -31 -21 -3 -27 -9 -30 -30 -2 -21 -9 -28 -30 -30 -21
-3 -27 -9 -30 -30 -2 -21 -9 -28 -29 -30 -24 -3 -27 -8 -34 -58 -6 -48 -9 -54
-30 -54 -19 0 -24 -6 -27 -32 -2 -27 -8 -34 -29 -36 -24 -3 -27 -8 -34 -58
l-6 -54 -55 0 c-54 0 -55 0 -52 28 2 21 9 28 31 30 21 3 27 9 27 28 0 20 -5
24 -30 24 -25 0 -30 -4 -30 -25 0 -21 -5 -25 -30 -25 -27 0 -30 -3 -30 -30 0
-25 -4 -30 -24 -30 -21 0 -24 -6 -30 -54 -7 -52 -8 -54 -44 -60 -66 -11 -72
-9 -72 24 0 25 4 30 24 30 22 0 25 5 31 60 6 55 9 60 31 60 20 0 24 5 24 30 0
25 -4 30 -25 30 -21 0 -25 -5 -25 -29 0 -26 -4 -30 -32 -33 -28 -2 -34 -8 -36
-30 -3 -22 -9 -28 -28 -28 -23 0 -24 3 -24 60 0 57 1 60 24 60 22 0 25 5 31
54 7 50 10 55 34 58 21 2 27 9 29 36 3 26 7 32 28 32 19 0 24 5 24 25 0 24 -3
25 -54 25 l-54 0 -6 -54 c-7 -50 -10 -55 -34 -58 -21 -2 -28 -9 -30 -30 -3
-22 -9 -28 -28 -28 -20 0 -24 -5 -24 -30 0 -27 -3 -30 -30 -30 -27 0 -30 -3
-30 -30 0 -27 -3 -30 -30 -30 l-30 0 0 -60 0 -60 -30 0 c-27 0 -30 -3 -30 -30
0 -25 -4 -30 -24 -30 -19 0 -24 -6 -30 -37 -3 -21 -6 -59 -6 -85 0 -43 -2 -47
-27 -50 -22 -2 -29 -9 -31 -30 l-3 -28 -98 0 c-54 0 -119 -3 -145 -6 l-46 -7
0 -58 0 -59 175 0 175 0 0 -25 c0 -21 5 -25 30 -25 25 0 30 -4 30 -25 0 -24
-3 -25 -60 -25 l-60 0 0 -35 c0 -32 2 -35 30 -35 27 0 30 -3 30 -31 l0 -31
148 2 c215 4 212 5 212 -25 l0 -25 -295 0 -295 0 0 31 0 30 58 -3 c57 -3 57
-3 60 27 l3 30 -151 -3 -150 -3 0 -25 c0 -20 -5 -24 -30 -24 -27 0 -30 3 -30
30 0 27 -3 30 -30 30 -27 0 -30 -3 -30 -30 0 -25 -4 -30 -25 -30 -24 0 -25 3
-25 55 0 55 0 55 31 55 l31 0 -7 60 -7 60 31 0 c26 0 31 4 31 25 0 24 -3 25
-55 25 -52 0 -55 -1 -55 -25 0 -21 -5 -25 -30 -25 -27 0 -30 -3 -30 -30 l0
-30 -180 0 -180 0 0 -30 0 -30 -145 2 -145 2 0 58 0 58 -265 0 -265 0 0 -30 0
-30 -60 0 -60 0 0 30 0 30 -205 0 -205 0 0 30 0 30 60 0 60 0 0 30 c0 30 1 30
55 30 55 0 55 0 55 31 l0 30 -87 -1 c-148 -2 -143 -3 -143 25 0 21 -5 25 -30
25 -25 0 -30 -4 -30 -25 0 -21 5 -25 30 -25 l30 0 0 -60 0 -60 -60 0 -60 0 0
30 c0 27 3 30 30 30 25 0 30 4 30 24 0 20 -6 24 -46 30 -72 9 -74 9 -74 -24
l0 -29 -147 -3 -148 -3 -3 -28 c-3 -26 -5 -27 -71 -27 -38 0 -89 -3 -115 -6
-40 -6 -46 -10 -46 -30 0 -24 -1 -24 -114 -24 l-115 0 -3 28 c-2 21 -9 28 -30
30 -25 3 -28 0 -28 -27 0 -28 -3 -31 -30 -31 -27 0 -30 3 -30 30 0 27 -3 30
-30 30 -27 0 -30 3 -30 30 0 27 -3 30 -30 30 -27 0 -30 -3 -30 -30 l0 -30
-2092 -2 c-1151 -1 -2118 -2 -2148 -3 -52 0 -55 -1 -58 -27 -3 -22 -9 -28 -28
-28 -20 0 -24 5 -24 29 l0 30 -487 0 c-269 1 -509 -2 -535 -5 -42 -6 -48 -10
-48 -30 0 -22 -4 -24 -55 -24 -54 0 -55 0 -55 30 l0 30 -90 0 -90 0 0 -30 0
-30 -910 0 -910 0 0 25 c0 25 -1 25 -90 25 -89 0 -90 0 -90 -25 l0 -25 -175 0
-175 0 0 60 0 60 30 0 c27 0 30 3 30 30 l0 30 -65 0 c-63 0 -65 1 -65 25 0 20
-5 25 -25 25 -20 0 -25 -5 -25 -25 0 -21 -5 -25 -30 -25 -25 0 -30 4 -30 25 0
25 -1 25 -90 25 -89 0 -90 0 -90 -25 0 -24 2 -25 63 -25 l64 0 -5 -30 -4 -30
-143 0 -143 0 -7 60 -7 60 -54 0 c-53 0 -54 0 -54 -30 l0 -30 -180 0 -180 0 0
30 0 30 -350 0 -350 0 0 25 c0 21 -5 25 -30 25 -27 0 -30 3 -30 29 0 25 -4 30
-27 33 -22 2 -29 9 -31 31 -3 23 -8 27 -33 27 -24 0 -29 -4 -29 -25 0 -21 -5
-25 -30 -25 -30 0 -30 1 -30 55 l0 55 90 0 c89 0 90 0 90 -25 0 -21 5 -25 30
-25 27 0 30 -3 30 -30 0 -27 3 -30 30 -30 25 0 30 4 30 25 0 20 5 25 25 25 20
0 25 -5 25 -25 l0 -25 120 0 120 0 0 115 0 115 -205 0 -205 0 0 -30 c0 -27 -3
-30 -30 -30 -30 0 -30 1 -30 55 0 54 0 55 -30 55 -25 0 -30 -4 -30 -25 0 -20
-5 -25 -25 -25 -20 0 -25 5 -25 25 0 28 13 26 -177 29 l-123 1 0 -27 c0 -32
-8 -30 146 -28 l92 1 -2 -88 -1 -88 -27 -3 c-28 -3 -28 -3 -30 60 0 35 -3 48
-5 31 -4 -33 -5 -33 -59 -33 -53 0 -54 0 -54 30 l0 30 -60 0 -60 0 0 85 0 85
325 0 325 0 0 -25 0 -25 145 0 145 0 0 25 0 25 938 0 c516 0 1061 3 1210 7
l272 6 0 24 c0 18 5 23 25 23 20 0 25 -5 25 -24 0 -20 6 -24 43 -28 24 -3 78
-3 120 0 73 4 77 6 77 28 l0 24 483 0 c266 0 545 3 620 7 135 6 137 6 137 30
l0 23 613 0 c338 0 696 3 795 7 l182 6 0 24 0 23 850 0 850 0 0 -25 c0 -24 3
-25 60 -25 57 0 60 1 60 25 l0 25 134 0 c73 0 154 3 180 6 40 6 46 10 46 30 0
19 5 24 25 24 20 0 25 -5 25 -25 l0 -25 115 0 115 0 0 25 0 25 388 2 387 3 3
28 3 27 440 0 439 0 0 23 c0 24 0 24 173 30 94 4 306 7 470 7 l297 0 0 23 c0
24 0 24 173 30 94 4 268 7 385 7 l212 0 0 23 c0 23 2 24 128 30 70 4 202 7
295 7 l167 0 0 23 0 24 212 6 c116 4 260 7 320 7 l108 0 0 25 0 25 113 0 c63
0 155 3 205 6 88 7 92 8 92 30 0 24 1 24 113 24 63 0 155 3 205 6 88 7 92 8
92 30 l0 24 164 0 c90 0 184 3 210 6 40 6 46 10 46 30 l0 24 159 0 c87 0 179
3 205 6 40 6 46 10 46 30 l0 24 174 0 175 0 3 28 3 27 177 3 178 2 0 24 c0 20
6 24 46 30 26 3 105 6 175 6 129 0 129 0 129 24 0 22 4 23 83 29 45 4 110 7
145 7 59 0 62 1 62 25 0 24 3 25 58 25 33 0 100 3 150 6 88 7 92 8 92 30 0 23
3 24 69 24 37 0 89 3 115 6 40 6 46 10 46 30 0 23 2 23 118 26 l117 3 3 28 3
27 115 0 114 0 0 30 0 30 74 0 c40 0 94 3 120 6 40 6 46 10 46 30 0 24 1 24
115 24 l115 0 0 30 0 30 90 0 c88 0 90 1 90 24 0 20 6 24 46 30 26 3 77 6 115
6 66 0 68 1 71 28 3 26 6 27 66 30 57 3 62 5 62 26 0 21 -6 24 -52 30 -29 3
-70 6 -90 6 -34 0 -38 3 -38 25 l0 25 -120 0 -120 0 0 -25 0 -25 -115 0 -115
0 0 25 c0 21 -5 25 -30 25 -25 0 -30 -4 -30 -25 0 -24 -2 -25 -74 -25 -40 0
-94 -3 -120 -6 -40 -6 -46 -10 -46 -30 0 -20 -5 -24 -30 -24 -27 0 -30 -3 -30
-30 l0 -30 -129 0 c-70 0 -149 -3 -175 -6 l-46 -7 0 31 c0 29 -1 30 -60 37
-55 6 -60 9 -60 31 l0 24 -175 0 -175 0 0 -25 c0 -27 16 -25 -235 -30 -179 -4
-175 -3 -175 -30 0 -24 -3 -25 -62 -25 -35 0 -100 -3 -145 -7 -78 -6 -83 -7
-83 -29 0 -23 -2 -23 -122 -26 l-123 -3 -3 -27 c-3 -27 -6 -28 -58 -28 -53 0
-54 0 -54 30 0 27 3 30 30 30 27 0 30 3 30 30 0 27 3 30 30 30 25 0 30 4 30
25 0 24 -3 25 -60 25 -57 0 -60 -1 -60 -25 0 -24 -3 -25 -60 -25 l-60 0 0 -30
0 -30 -145 0 -145 0 0 -30 0 -30 -60 0 -60 0 0 -30 c0 -27 -3 -30 -30 -30 -25
0 -30 -4 -30 -24 0 -22 -5 -25 -54 -31 -50 -7 -55 -10 -58 -34 -2 -21 -9 -27
-35 -29 -31 -3 -33 -1 -33 27 0 27 3 31 29 31 27 0 29 2 35 60 6 55 9 60 31
60 21 0 25 5 25 30 0 27 3 30 30 30 30 0 30 1 30 55 0 54 0 55 -30 55 -25 0
-30 -4 -30 -25 0 -21 -5 -25 -30 -25 -27 0 -30 -3 -30 -30 0 -27 -3 -30 -30
-30 -27 0 -30 -3 -30 -30 0 -27 -3 -30 -30 -30 -27 0 -30 -3 -30 -30 0 -25 -4
-30 -24 -30 -19 0 -25 -6 -28 -27 -2 -22 -9 -29 -30 -31 -21 -3 -27 -9 -30
-30 -2 -21 -9 -28 -30 -30 -28 -3 -28 -3 -28 57 0 58 1 61 24 61 22 0 25 5 31
60 6 54 9 60 30 60 22 0 25 6 31 60 6 55 9 60 30 60 19 0 24 5 24 25 0 21 -5
25 -30 25 -25 0 -30 -4 -30 -24 0 -19 -6 -25 -27 -28 -22 -2 -29 -9 -31 -30
-3 -24 -8 -27 -57 -33 -49 -7 -54 -10 -57 -34 -2 -20 -9 -27 -30 -29 -27 -3
-28 -6 -28 -58 0 -53 0 -54 -30 -54 -27 0 -30 -3 -30 -30 0 -27 -3 -30 -30
-30 -27 0 -30 3 -30 30 0 25 -4 30 -25 30 -21 0 -25 5 -25 30 0 27 -3 30 -30
30 l-30 0 0 60 c0 57 1 60 24 60 21 0 24 6 31 55 6 50 9 55 31 55 21 0 24 5
24 36 0 33 -2 35 -27 32 -22 -2 -29 -9 -31 -30 -3 -21 -9 -27 -30 -30 -21 -2
-28 -9 -30 -30 -3 -21 -9 -27 -30 -30 -21 -2 -28 -9 -30 -30 -3 -22 -9 -28
-28 -28 -20 0 -24 -5 -24 -30 0 -27 -3 -30 -30 -30 l-30 0 0 -60 0 -60 -30 0
c-27 0 -30 -3 -30 -30 0 -27 -3 -30 -30 -30 -27 0 -30 -3 -30 -30 0 -27 -3
-30 -30 -30 -25 0 -30 -4 -30 -25 0 -20 -5 -25 -24 -25 -21 0 -25 6 -31 51 -4
28 -4 80 0 115 6 59 8 64 31 64 l24 0 0 121 0 120 -27 -3 c-26 -3 -28 -6 -31
-60 -3 -53 -5 -57 -30 -60 -25 -3 -27 -6 -30 -60 -3 -57 -4 -58 -32 -58 -27 0
-30 -3 -30 -30 0 -25 -4 -30 -25 -30 -21 0 -25 -5 -25 -30 0 -28 -3 -30 -35
-30 -30 0 -35 -3 -35 -24 0 -19 -6 -24 -37 -30 -21 -3 -57 -6 -80 -6 -41 0
-43 1 -43 30 0 25 4 30 25 30 24 0 25 3 25 60 l0 60 30 0 30 0 0 60 0 60 30 0
c30 0 30 1 30 54 0 52 1 55 28 58 26 3 27 6 30 61 l3 57 -31 0 c-27 0 -30 -3
-30 -30 0 -27 -3 -30 -30 -30 -27 0 -30 -3 -30 -30 0 -27 -3 -30 -30 -30 -30
0 -30 -1 -30 -54 0 -52 -1 -55 -27 -58 -27 -3 -28 -6 -31 -60 -3 -53 -5 -58
-26 -58 -20 0 -24 -6 -30 -46 -3 -26 -6 -78 -6 -115 0 -66 -1 -69 -24 -69 -20
0 -24 -6 -30 -46 -3 -26 -6 -66 -6 -90 0 -40 -2 -44 -24 -44 -22 0 -25 5 -31
55 -7 49 -10 55 -31 55 -19 0 -24 -5 -24 -24 0 -21 -6 -25 -32 -28 -28 -2 -34
-8 -36 -30 -3 -27 -6 -28 -58 -28 -51 0 -54 1 -54 25 0 21 5 25 30 25 28 0 30
3 30 35 0 31 3 35 25 35 20 0 25 5 25 25 0 21 -5 25 -30 25 -25 0 -30 -4 -30
-24 0 -22 -5 -25 -55 -31 -49 -7 -55 -10 -55 -31 0 -20 -5 -24 -30 -24 -27 0
-30 -3 -30 -30 0 -28 -1 -29 -57 -32 -55 -3 -58 -4 -61 -30 -3 -27 -6 -28 -58
-28 -53 0 -54 0 -54 -30 l0 -30 -60 0 -60 0 0 60 c0 57 1 60 25 60 20 0 25 5
25 25 0 24 -3 25 -55 25 -51 0 -55 -2 -55 -24 0 -22 -4 -23 -85 -29 -47 -3
-139 -3 -205 0 l-120 6 0 29 0 28 -120 0 c-120 0 -120 0 -120 24 0 23 -3 24
-115 31 -113 7 -115 7 -115 31 l0 24 -120 0 -120 0 0 30 0 30 -120 0 -120 0 0
30 0 30 -69 0 c-37 0 -89 3 -115 6 -40 6 -46 10 -46 30 0 23 -2 24 -90 24
l-90 0 0 30 0 30 -90 0 c-88 0 -90 1 -90 24 0 28 -32 36 -152 36 -76 0 -78 1
-78 24 0 24 -2 24 -115 31 -111 7 -115 8 -115 30 0 22 -4 23 -120 30 -118 7
-120 8 -120 31 0 23 -2 24 -77 24 -120 0 -153 8 -153 36 0 22 -3 23 -92 26
l-93 3 -3 28 -3 27 -102 0 c-145 0 -177 7 -177 36 0 23 -2 24 -90 24 l-90 0 0
30 0 30 -120 0 c-120 0 -120 0 -120 24 0 28 -32 36 -157 36 -81 0 -83 1 -83
24 0 29 -32 36 -177 36 -102 0 -103 0 -103 24 0 21 -6 24 -52 30 -29 3 -83 6
-120 6 -65 0 -68 1 -68 24 0 23 -2 24 -120 31 -118 7 -120 8 -120 31 0 24 0
24 -115 24 -115 0 -115 0 -115 -24 0 -21 6 -24 55 -31 50 -6 55 -9 55 -31 0
-20 5 -24 30 -24 27 0 30 -3 30 -30 0 -27 3 -30 30 -30 27 0 30 -3 30 -30 l0
-30 -60 0 -60 0 0 30 0 30 -90 0 -90 0 0 -30 c0 -28 3 -30 35 -30 l35 0 0 -60
0 -60 -90 0 -90 0 0 30 0 30 -150 0 -150 0 0 24 c0 22 -4 23 -92 30 -50 3
-129 6 -175 6 -81 0 -83 1 -83 24 0 20 -6 24 -46 30 -60 8 -148 8 -208 0 -40
-6 -46 -10 -46 -30 l0 -24 150 0 150 0 0 -30 0 -30 60 0 c56 0 60 -1 60 -24 0
-20 6 -24 46 -30 26 -3 118 -6 205 -6 l159 0 0 -24 c0 -20 6 -24 46 -30 26 -3
78 -6 115 -6 66 0 69 -1 69 -24 0 -21 6 -24 53 -30 28 -3 85 -6 125 -6 70 0
72 -1 72 -25 0 -24 3 -25 53 -25 30 0 95 -3 145 -6 87 -7 92 -8 92 -30 0 -21
5 -22 115 -29 112 -7 115 -8 115 -31 0 -23 3 -24 74 -24 40 0 94 -3 120 -6 40
-6 46 -10 46 -30 0 -24 1 -24 115 -24 l115 0 0 -30 0 -30 144 0 145 0 3 -27
c3 -27 6 -28 66 -31 61 -3 62 -3 62 -32 l0 -30 115 0 c115 0 115 0 115 -24 0
-22 -5 -25 -60 -31 -58 -7 -60 -8 -60 -36 0 -26 -4 -29 -30 -29 -25 0 -30 -4
-30 -25 0 -20 -5 -25 -25 -25 -24 0 -25 3 -25 61 l0 60 -32 -3 c-27 -2 -34 -8
-36 -30 -3 -24 -8 -27 -58 -34 -51 -6 -54 -8 -54 -35 0 -26 -4 -29 -30 -29
-25 0 -30 -4 -30 -24 0 -20 -6 -24 -46 -30 -26 -3 -78 -6 -115 -6 -67 0 -69
-1 -69 -25 0 -24 -2 -25 -65 -25 -63 0 -65 1 -65 25 0 20 -5 25 -25 25 -21 0
-25 -5 -25 -30 0 -27 -3 -30 -30 -30 l-30 0 0 60 0 60 -30 0 c-25 0 -30 -4
-30 -25 0 -23 -4 -25 -44 -25 -24 0 -64 -3 -90 -6 -39 -6 -46 -10 -46 -29 0
-21 -6 -23 -82 -28 -45 -3 -86 -3 -90 -1 -5 3 -8 18 -8 35 l0 29 -69 0 c-37 0
-89 -3 -115 -6 -40 -6 -46 -10 -46 -30 0 -24 -1 -24 -120 -24 l-120 0 0 25 c0
20 -5 25 -25 25 -20 0 -25 -5 -25 -24 0 -21 -5 -24 -60 -30 -55 -6 -60 -9 -60
-31 0 -24 -3 -25 -61 -25 -60 0 -60 0 -57 28 2 21 9 28 31 30 26 3 27 6 27 58
0 53 0 54 -30 54 -25 0 -30 -4 -30 -25 0 -23 -4 -25 -47 -25 -27 0 -65 -3 -85
-6 -32 -6 -38 -11 -38 -30 0 -23 -2 -24 -89 -24 l-90 0 -3 28 c-3 27 -3 27
-90 30 l-88 3 0 -31 c0 -29 -1 -30 -47 -30 -27 0 -65 -3 -85 -6 -32 -6 -38
-11 -38 -30 0 -20 -5 -24 -29 -24 -27 0 -29 3 -35 54 l-7 54 -51 7 c-27 4 -79
4 -114 0 -59 -6 -64 -8 -64 -31 0 -22 -4 -24 -47 -24 -27 0 -65 -3 -85 -6 -32
-6 -38 -11 -38 -30 0 -23 -4 -24 -60 -24 l-60 0 0 -30 c0 -27 -3 -30 -30 -30
-27 0 -30 3 -30 30 0 25 4 30 25 30 20 0 25 5 25 25 0 20 -5 25 -25 25 -21 0
-25 5 -25 30 l0 30 -60 0 c-57 0 -60 -1 -60 -25 0 -24 -3 -25 -60 -25 l-60 0
0 -30 c0 -27 -3 -30 -30 -30 -27 0 -30 -3 -30 -30 l0 -30 -60 0 -60 0 0 -30
c0 -25 -4 -30 -24 -30 -20 0 -24 6 -30 46 -3 26 -6 64 -6 84 0 36 -2 38 -39
44 -21 3 -60 3 -85 0 -40 -6 -46 -10 -46 -30 0 -23 -2 -24 -90 -24 -89 0 -90
0 -90 25 0 20 -5 25 -25 25 -20 0 -25 -5 -25 -25 0 -21 -5 -25 -30 -25 -30 0
-30 1 -30 54 0 30 -4 57 -9 61 -5 3 -35 2 -65 -1 -50 -6 -56 -9 -56 -30 0 -23
-2 -23 -112 -26 l-113 -3 -3 -27 c-3 -27 -5 -28 -63 -28 -59 0 -59 0 -59 -30
l0 -30 -85 0 -85 0 0 30 0 30 -90 0 c-89 0 -90 0 -90 24 0 23 -5 25 -64 31
-35 4 -87 4 -115 0 -45 -6 -51 -10 -51 -31 0 -24 0 -24 -120 -26 -66 -1 -132
-2 -147 -2 -23 -1 -29 4 -31 27 -3 24 0 27 27 27 28 0 31 3 31 30 0 27 3 30
30 30 27 0 30 3 30 30 0 25 4 30 24 30 33 0 39 12 31 70 l-7 49 -54 7 c-48 6
-54 9 -54 30 0 20 5 24 30 24 l30 0 0 60 0 60 30 0 30 0 0 90 0 90 -30 0 c-30
0 -30 1 -30 55 0 54 0 55 -30 55 -27 0 -30 3 -30 30 0 29 -1 30 -47 30 -27 0
-65 3 -85 6 -32 6 -38 11 -38 30 l0 24 -150 0 -150 0 0 -30 c0 -30 -1 -30 -55
-30 -52 0 -55 -1 -55 -25 0 -22 -4 -25 -35 -25 l-35 0 0 55 c0 54 0 55 30 55
27 0 30 3 30 30 l0 30 91 0 92 0 -7 46 c-3 26 -6 53 -6 60 0 8 -11 14 -25 14
-21 0 -25 -5 -25 -29 0 -39 -9 -43 -70 -35 -47 6 -50 8 -50 35 0 26 -4 29 -30
29 -27 0 -30 -3 -30 -30 0 -27 -3 -30 -30 -30 -27 0 -30 -3 -30 -30 0 -25 -4
-30 -24 -30 -21 0 -24 -6 -30 -54 -7 -50 -10 -55 -34 -58 -22 -2 -28 -9 -30
-35 -3 -27 -7 -33 -28 -33 -19 0 -24 -5 -24 -25 0 -24 -2 -25 -74 -25 -40 0
-94 -3 -120 -6 -43 -6 -46 -9 -46 -37 0 -29 -1 -29 -37 -23 -21 3 -48 6 -60 6
-18 0 -23 6 -23 25 0 22 -5 25 -60 31 -53 6 -60 9 -60 29 0 20 -6 22 -82 28
-107 9 -369 9 -475 0 -79 -6 -83 -7 -83 -29 0 -20 -5 -24 -30 -24 -30 0 -30 1
-30 55 0 54 0 55 -30 55 -25 0 -30 -4 -30 -25 0 -21 -5 -25 -30 -25 -27 0 -30
-3 -30 -30 0 -30 -1 -30 -54 -30 -52 0 -55 1 -58 28 -2 22 -8 28 -35 30 -27 3
-33 7 -33 28 0 23 -3 24 -60 24 -57 0 -60 -1 -60 -25 0 -20 -5 -25 -25 -25
-20 0 -25 5 -25 25 0 21 -5 25 -30 25 -27 0 -30 3 -30 30 0 27 -3 30 -30 30
-25 0 -30 -4 -30 -25 0 -24 -3 -25 -55 -25 -52 0 -55 1 -55 25 0 20 5 25 25
25 21 0 25 5 25 30 l0 30 -60 0 -60 0 0 -30 0 -30 -175 0 -175 0 0 -24 c0 -20
-6 -24 -46 -30 -72 -9 -74 -9 -74 24 l0 30 -60 0 -60 0 0 -30 c0 -25 -4 -30
-25 -30 -21 0 -25 5 -25 30 0 28 -3 30 -35 30 -30 0 -35 -3 -35 -24 0 -22 -5
-25 -55 -31 -49 -7 -55 -10 -55 -31 0 -20 -5 -24 -30 -24 -30 0 -30 1 -30 54
l0 53 -42 6 c-23 3 -63 3 -90 0 -45 -5 -48 -8 -48 -34 0 -27 -3 -29 -39 -29
-21 0 -59 3 -85 6 -40 6 -46 10 -46 30 0 23 -4 24 -60 24 -57 0 -60 -1 -60
-24 0 -22 -5 -25 -60 -31 -55 -6 -60 -9 -60 -31 0 -20 -5 -24 -30 -24 l-29 0
6 85 6 85 -61 0 c-59 0 -61 -1 -64 -27 -3 -27 -6 -28 -60 -31 l-58 -3 0 61 0
60 -175 0 -175 0 0 60 c0 57 1 60 25 60 20 0 25 5 25 25 0 20 -5 25 -25 25
-20 0 -25 -5 -25 -25 0 -22 -4 -25 -35 -25 -32 0 -35 -2 -35 -30 0 -27 -3 -30
-30 -30 -27 0 -30 -3 -30 -30 0 -25 -4 -30 -25 -30 -21 0 -25 -5 -25 -30 l0
-30 -60 0 -60 0 0 60 c0 57 -1 60 -24 60 -22 0 -25 5 -31 60 -7 58 -8 60 -36
60 -24 0 -29 4 -29 24 0 22 -5 25 -55 31 -49 7 -55 10 -55 30 0 18 6 24 28 27
l27 3 3 120 c2 66 0 143 -3 172 -6 47 -9 52 -33 55 -22 2 -28 9 -30 36 -3 26
-8 32 -27 32 -18 0 -24 6 -27 28 -2 21 -9 28 -30 30 -22 3 -28 9 -28 27 0 19
-6 24 -32 27 -28 2 -34 8 -36 31 -3 24 -7 27 -41 27 -21 0 -59 3 -85 6 -40 6
-46 10 -46 30 0 24 -1 24 -115 24 l-115 0 0 -24 c0 -21 -6 -25 -32 -28 -27 -2
-34 -8 -36 -30 -3 -21 -9 -27 -30 -30 -21 -2 -28 -9 -30 -30 -3 -22 -9 -28
-28 -28 -19 0 -24 5 -24 24 0 19 -6 25 -27 28 -22 2 -29 9 -31 31 -3 26 -5 27
-63 27 -56 0 -59 -1 -59 -25 l0 -25 -175 0 -175 0 0 24 c0 19 6 25 28 28 21 2
28 9 30 31 3 24 0 27 -27 27 -28 0 -31 3 -31 30 0 27 -3 30 -30 30 -27 0 -30
3 -30 30 l0 30 -85 0 c-83 0 -85 1 -85 24 0 20 -6 24 -46 30 -26 3 -107 6
-180 6 l-134 0 0 25 c0 21 -5 25 -30 25 -25 0 -30 -4 -30 -25z m2478 -1177 c3
-25 0 -28 -27 -28 -28 0 -31 3 -31 31 0 27 3 30 28 27 21 -2 28 -9 30 -30z
m352 -113 c0 -21 -5 -25 -30 -25 -25 0 -30 4 -30 25 0 21 5 25 30 25 25 0 30
-4 30 -25z m1820 -60 c0 -20 -5 -25 -25 -25 -20 0 -25 5 -25 25 0 20 5 25 25
25 20 0 25 -5 25 -25z m2120 -55 c0 -27 -3 -30 -30 -30 -27 0 -30 -3 -30 -30
0 -25 -4 -30 -25 -30 -21 0 -25 5 -25 30 0 25 4 30 25 30 20 0 25 5 25 23 0
30 7 37 37 37 19 0 23 -5 23 -30z m-6000 -5 c0 -24 2 -25 68 -25 38 0 130 -3
205 -7 135 -6 137 -6 137 -30 0 -23 2 -23 99 -23 54 0 119 -3 145 -6 40 -6 46
-10 46 -30 0 -22 4 -24 53 -24 28 0 69 -3 90 -6 30 -6 37 -11 37 -30 0 -22 3
-23 88 -26 87 -3 87 -3 90 -30 l3 -28 84 0 84 0 3 -27 c3 -28 3 -28 91 -31
l87 -3 0 -29 0 -30 90 0 90 0 0 -30 0 -30 60 0 c56 0 60 -1 60 -24 0 -20 6
-24 46 -30 26 -3 64 -6 85 -6 37 0 39 -2 39 -30 0 -27 3 -30 30 -30 30 0 30
-1 30 -55 0 -54 0 -55 30 -55 27 0 30 -3 30 -30 l0 -30 -235 0 -235 0 0 24 c0
20 -6 24 -46 30 -26 3 -132 6 -235 6 l-189 0 0 24 c0 22 -4 23 -92 30 -50 3
-158 6 -240 6 l-148 0 0 23 c0 23 -2 24 -127 30 -71 4 -176 7 -235 7 l-108 0
0 25 c0 25 -1 25 -87 25 -49 0 -166 3 -260 7 -173 6 -173 6 -173 30 0 23 -1
23 -120 23 l-120 0 0 60 0 60 30 0 c27 0 30 3 30 30 0 27 3 30 30 30 27 0 30
3 30 30 0 25 4 30 24 30 19 0 25 6 28 28 2 21 9 28 30 30 21 3 27 9 30 30 2
21 9 28 31 30 21 3 27 9 27 27 0 21 6 24 60 30 55 6 60 9 60 31 l0 24 120 0
120 0 0 -25z m12710 -499 l0 -54 -60 -7 c-54 -6 -60 -9 -60 -30 0 -21 -5 -22
-77 -27 -43 -3 -95 -3 -115 0 -34 4 -38 7 -38 33 0 26 4 29 30 29 30 0 30 1
30 55 l0 55 145 0 145 0 0 -54z m4940 29 c0 -20 -5 -25 -25 -25 -20 0 -25 5
-25 25 0 20 5 25 25 25 20 0 25 -5 25 -25z m240 -5 c0 -25 -4 -30 -25 -30 -21
0 -25 5 -25 30 0 25 4 30 25 30 21 0 25 -5 25 -30z m-4820 -54 c0 -21 -6 -25
-32 -28 -28 -2 -34 -8 -36 -30 l-3 -28 -85 0 c-82 0 -84 1 -84 24 0 22 5 25
60 31 55 6 60 9 60 31 0 23 3 24 60 24 57 0 60 -1 60 -24z m350 -97 l0 -62 38
7 c20 3 47 6 60 6 18 0 22 6 22 31 0 31 1 31 38 25 20 -3 58 -6 85 -6 43 0 47
-2 47 -25 0 -24 3 -25 60 -25 l60 0 0 -30 c0 -30 -1 -30 -55 -30 -54 0 -55 0
-55 -30 0 -26 -3 -30 -29 -30 -27 0 -29 -3 -35 -54 -7 -52 -8 -54 -44 -60 -66
-11 -72 -9 -72 24 0 27 -3 30 -30 30 -25 0 -30 -4 -30 -25 0 -21 -5 -25 -30
-25 -26 0 -30 -3 -30 -29 0 -28 -2 -29 -60 -36 -58 -7 -60 -8 -60 -36 0 -26
-4 -29 -30 -29 -25 0 -30 -4 -30 -25 0 -21 -5 -25 -30 -25 -25 0 -30 4 -30 24
0 20 -6 25 -43 30 -24 4 -63 4 -85 0 -36 -6 -42 -10 -42 -30 0 -20 -5 -24 -30
-24 l-30 0 0 84 0 85 28 3 c26 3 27 6 30 61 3 56 4 57 32 57 27 0 30 3 30 30
0 25 4 30 24 30 21 0 24 6 30 54 7 50 10 55 34 58 21 2 28 9 30 31 l3 27 115
0 114 0 0 -61z m-2000 -84 c0 -24 -3 -25 -60 -25 -57 0 -60 1 -60 25 0 24 3
25 60 25 57 0 60 -1 60 -25z m-1950 -55 c0 -25 -4 -30 -25 -30 -21 0 -25 5
-25 30 0 25 4 30 25 30 21 0 25 -5 25 -30z m4540 0 l0 -30 -60 0 -60 0 0 -30
c0 -27 -3 -30 -30 -30 -27 0 -30 3 -30 30 0 27 3 30 30 30 27 0 30 3 30 30 l0
30 60 0 60 0 0 -30z m-180 -175 c0 -20 -5 -25 -25 -25 -20 0 -25 5 -25 25 0
20 5 25 25 25 20 0 25 -5 25 -25z m8890 -60 c0 -20 -5 -25 -25 -25 -20 0 -25
5 -25 25 0 20 5 25 25 25 20 0 25 -5 25 -25z m-23356 -151 c40 -6 46 -10 46
-30 0 -20 5 -24 30 -24 l30 0 0 -60 0 -60 -30 0 c-27 0 -30 -3 -30 -30 l0 -30
-120 0 -120 0 0 30 c0 25 -4 30 -25 30 -24 0 -25 3 -25 60 l0 60 30 0 c25 0
30 4 30 24 0 19 6 26 28 29 46 7 107 7 156 1z m23996 -29 c0 -20 -5 -25 -25
-25 -20 0 -25 5 -25 25 0 20 5 25 25 25 20 0 25 -5 25 -25z m-50 -60 c0 -24
-3 -25 -55 -25 -52 0 -55 1 -55 25 0 24 3 25 55 25 52 0 55 -1 55 -25z m-120
-55 c0 -27 -3 -30 -30 -30 -25 0 -30 -4 -30 -25 0 -20 -5 -25 -25 -25 -20 0
-25 5 -25 25 0 20 5 25 25 25 21 0 25 5 25 30 0 27 3 30 30 30 27 0 30 -3 30
-30z m-590 -85 c0 -52 -1 -55 -25 -55 -24 0 -25 3 -25 55 0 52 1 55 25 55 24
0 25 -3 25 -55z m820 25 c0 -25 -4 -30 -25 -30 -21 0 -25 5 -25 30 0 25 4 30
25 30 21 0 25 -5 25 -30z m-22248 -57 c2 -23 8 -29 36 -31 26 -3 32 -7 32 -28
0 -19 5 -24 25 -24 25 0 25 -1 25 -90 0 -89 0 -90 -25 -90 -21 0 -25 -5 -25
-30 0 -28 -3 -30 -35 -30 -30 0 -35 3 -35 24 0 22 -5 25 -55 31 -48 6 -55 10
-55 30 0 20 -6 23 -60 29 l-60 7 0 59 c0 60 0 60 30 60 25 0 30 4 30 25 0 21
5 25 30 25 27 0 30 3 30 30 0 30 1 30 54 30 52 0 55 -1 58 -27z m19428 -64 c0
-27 -3 -30 -27 -27 -22 2 -29 9 -31 31 -3 24 0 27 27 27 28 0 31 -3 31 -31z
m1940 1 c0 -25 -4 -30 -25 -30 -21 0 -25 5 -25 30 0 25 4 30 25 30 21 0 25 -5
25 -30z m-2000 -60 c0 -25 -4 -30 -25 -30 -21 0 -25 5 -25 30 0 25 4 30 25 30
21 0 25 -5 25 -30z m-17600 -115 c0 -21 -5 -25 -30 -25 -25 0 -30 4 -30 25 0
21 5 25 30 25 25 0 30 -4 30 -25z m15010 -115 c0 -25 -4 -30 -25 -30 -21 0
-25 5 -25 30 0 25 4 30 25 30 21 0 25 -5 25 -30z m-14250 -115 c0 -24 -3 -25
-55 -25 -52 0 -55 1 -55 25 0 24 3 25 55 25 52 0 55 -1 55 -25z m13480 -5 c0
-25 -4 -30 -25 -30 -21 0 -25 5 -25 30 0 25 4 30 25 30 21 0 25 -5 25 -30z
m-15882 -231 c3 -24 8 -27 57 -34 l54 -6 7 -55 c6 -48 9 -54 30 -54 20 0 24
-5 24 -30 0 -27 -3 -30 -30 -30 -27 0 -30 -3 -30 -30 l0 -30 -85 0 -85 0 0 30
c0 28 -3 30 -35 30 l-35 0 0 78 c0 42 3 94 6 114 7 39 22 47 89 44 25 -1 31
-6 33 -27z m3932 -59 c0 -25 -4 -30 -25 -30 -21 0 -25 -5 -25 -30 0 -27 -3
-30 -30 -30 -27 0 -30 3 -30 30 0 27 3 30 30 30 27 0 30 3 30 30 0 25 4 30 25
30 21 0 25 -5 25 -30z m11958 -267 l-3 -58 -57 -3 -58 -3 0 31 c0 27 -3 30
-30 30 -27 0 -30 3 -30 30 l0 30 90 0 91 0 -3 -57z m112 -28 c0 -20 -5 -25
-25 -25 -20 0 -25 5 -25 25 0 20 5 25 25 25 20 0 25 -5 25 -25z m193 -35 c43
0 47 -2 47 -24 0 -22 -5 -25 -59 -31 -32 -4 -84 -4 -115 0 -50 7 -56 10 -56
31 0 18 6 24 33 27 17 3 48 3 67 1 19 -2 56 -4 83 -4z m397 -24 c0 -22 -5 -25
-52 -31 -29 -4 -69 -5 -88 -3 -30 3 -35 7 -38 31 l-3 27 90 0 c90 0 91 0 91
-24z m300 -66 c0 -25 4 -30 25 -30 24 0 25 -3 25 -55 0 -52 -1 -55 -25 -55
-21 0 -25 -5 -25 -30 l0 -30 -90 0 -90 0 0 30 0 30 -60 0 -60 0 0 -30 c0 -25
-4 -30 -25 -30 -21 0 -25 5 -25 30 l0 30 -60 0 -60 0 0 30 0 30 115 0 115 0 0
55 0 55 120 0 120 0 0 -30z m-590 -42 c0 -13 -3 -40 -6 -60 -6 -32 -11 -38
-30 -38 -20 0 -24 5 -24 30 l0 30 -115 0 -115 0 0 25 c0 24 2 24 88 28 221 8
202 9 202 -15z m760 -13 c0 -20 -5 -25 -25 -25 -20 0 -25 5 -25 25 0 20 5 25
25 25 20 0 25 -5 25 -25z m-16536 -117 c11 -160 15 -148 -53 -148 l-59 0 -6
54 c-7 50 -10 55 -34 58 -22 2 -28 9 -30 36 -3 26 -7 32 -28 32 -19 0 -24 5
-24 24 0 29 13 32 141 35 l86 1 7 -92z m16656 32 c0 -57 -1 -60 -25 -60 -24 0
-25 3 -25 60 0 57 1 60 25 60 24 0 25 -3 25 -60z m360 25 c0 -21 -5 -25 -30
-25 -25 0 -30 4 -30 25 0 21 5 25 30 25 25 0 30 -4 30 -25z m410 -60 c0 -24
-3 -25 -60 -25 -57 0 -60 1 -60 25 0 24 3 25 60 25 57 0 60 -1 60 -25z m-830
-60 c0 -20 -5 -25 -25 -25 -20 0 -25 5 -25 25 0 20 5 25 25 25 20 0 25 -5 25
-25z m410 -55 c0 -30 -1 -30 -55 -30 -54 0 -55 0 -55 30 0 30 1 30 55 30 54 0
55 0 55 -30z m1000 0 c0 -30 -1 -30 -55 -30 -54 0 -55 0 -55 30 0 30 1 30 55
30 54 0 55 0 55 -30z m-880 -55 c0 -20 -5 -25 -25 -25 -20 0 -25 5 -25 25 0
20 5 25 25 25 20 0 25 -5 25 -25z m470 -60 l0 -25 -145 0 -145 0 0 25 0 25
145 0 145 0 0 -25z"/>
<path d="M19130 1770 l0 -60 30 0 30 0 0 60 0 60 -30 0 -30 0 0 -60z"/>
<path d="M27020 5825 c0 -52 1 -55 25 -55 17 0 25 6 25 18 0 9 3 34 6 55 6 36
6 37 -25 37 -31 0 -31 0 -31 -55z"/>
<path d="M14900 5095 c0 -20 5 -25 25 -25 20 0 25 5 25 25 0 20 -5 25 -25 25
-20 0 -25 -5 -25 -25z"/>
<path d="M10770 5035 c0 -21 5 -25 30 -25 25 0 30 4 30 25 0 21 -5 25 -30 25
-25 0 -30 -4 -30 -25z"/>
<path d="M9250 4975 c0 -20 5 -25 25 -25 20 0 25 5 25 25 0 20 -5 25 -25 25
-20 0 -25 -5 -25 -25z"/>
<path d="M10890 4975 c0 -20 5 -25 25 -25 20 0 25 5 25 25 0 20 -5 25 -25 25
-20 0 -25 -5 -25 -25z"/>
<path d="M11010 4975 c0 -21 5 -25 28 -25 26 0 28 -3 24 -30 -4 -29 -3 -30 33
-30 l38 0 -7 38 c-3 20 -6 45 -6 55 0 14 -9 17 -55 17 -52 0 -55 -1 -55 -25z"/>
<path d="M15370 4975 c0 -20 5 -25 25 -25 20 0 25 5 25 25 0 20 -5 25 -25 25
-20 0 -25 -5 -25 -25z"/>
<path d="M9590 4915 c0 -25 1 -25 90 -25 89 0 90 0 90 25 0 25 -1 25 -90 25
-89 0 -90 0 -90 -25z"/>
<path d="M11180 4915 c0 -21 5 -25 30 -25 27 0 30 -3 30 -30 0 -27 3 -30 30
-30 27 0 30 -3 30 -30 0 -27 3 -30 30 -30 27 0 30 3 30 30 0 27 -3 30 -30 30
-30 0 -30 1 -30 55 l0 55 -60 0 c-57 0 -60 -1 -60 -25z"/>
<path d="M9890 4855 c0 -25 1 -25 90 -25 l90 0 0 -30 0 -30 129 0 c70 0 149
-3 175 -6 l46 -7 0 32 0 31 -58 0 c-33 0 -100 3 -150 6 -88 7 -92 8 -92 30 0
24 -1 24 -115 24 l-115 0 0 -25z"/>
<path d="M15840 4855 c0 -24 3 -25 55 -25 54 0 55 0 55 -30 0 -27 3 -30 30
-30 27 0 30 3 30 30 0 27 3 30 30 30 25 0 30 4 30 25 l0 25 -115 0 -115 0 0
-25z"/>
<path d="M15308 4823 c-54 -4 -58 -6 -58 -28 0 -25 1 -25 85 -25 l85 0 0 30
c0 27 -3 30 -27 28 -16 -1 -54 -3 -85 -5z"/>
<path d="M16190 4795 c0 -24 3 -25 55 -25 52 0 55 1 55 25 0 24 -3 25 -55 25
-52 0 -55 -1 -55 -25z"/>
<path d="M15840 4705 c0 -54 0 -55 -30 -55 -25 0 -30 -4 -30 -25 0 -22 4 -25
39 -25 21 0 59 -3 85 -6 40 -6 46 -10 46 -30 0 -20 5 -24 30 -24 27 0 30 3 30
30 0 25 -4 30 -25 30 -20 0 -25 5 -25 25 0 22 -4 25 -35 25 l-35 0 0 55 c0 52
-1 55 -25 55 -24 0 -25 -3 -25 -55z"/>
<path d="M16362 4735 c0 -16 2 -22 5 -12 2 9 2 23 0 30 -3 6 -5 -1 -5 -18z"/>
<path d="M16420 4735 c0 -24 3 -25 60 -25 57 0 60 1 60 25 0 24 -3 25 -60 25
-57 0 -60 -1 -60 -25z"/>
<path d="M15540 4680 c0 -27 3 -30 30 -30 27 0 30 3 30 30 0 27 -3 30 -30 30
-27 0 -30 -3 -30 -30z"/>
<path d="M15657 4703 c-4 -3 -7 -17 -7 -30 0 -22 4 -23 60 -23 l60 0 0 30 c0
30 -1 30 -53 30 -30 0 -57 -3 -60 -7z"/>
<path d="M16010 4680 l0 -30 90 0 c89 0 90 0 90 -25 0 -24 3 -25 55 -25 52 0
55 1 55 25 0 24 -3 25 -55 25 -54 0 -55 0 -55 30 l0 30 -90 0 -90 0 0 -30z"/>
<path d="M16830 4596 l0 -53 60 -7 c55 -6 60 -9 60 -31 0 -21 5 -25 30 -25 27
0 30 3 30 31 l0 32 81 -6 c114 -8 149 -1 149 29 0 24 -1 24 -115 24 l-115 0 0
30 0 30 -90 0 -90 0 0 -54z"/>
<path d="M16070 4566 c0 -21 6 -24 55 -31 50 -6 55 -9 55 -31 0 -23 3 -24 65
-24 62 0 65 1 65 25 0 23 -4 24 -62 27 -60 3 -63 4 -66 31 -3 26 -6 27 -58 27
-50 0 -54 -2 -54 -24z"/>
<path d="M17250 4501 l0 -29 88 3 c152 4 142 2 142 30 l0 25 -115 0 -115 0 0
-29z"/>
<path d="M16778 4443 c-2 -23 -8 -29 -35 -31 -27 -3 -33 -7 -33 -28 0 -21 5
-24 35 -24 32 0 35 -2 35 -30 l0 -30 91 0 90 0 -3 28 c-3 27 -3 27 -90 30 -85
3 -88 4 -88 27 0 18 6 24 28 27 21 2 28 9 30 31 3 24 0 27 -27 27 -25 0 -30
-4 -33 -27z"/>
<path d="M17490 4445 c0 -20 5 -25 25 -25 20 0 25 5 25 25 0 20 -5 25 -25 25
-20 0 -25 -5 -25 -25z"/>
<path d="M17188 4414 c-5 -4 -8 -31 -8 -61 l0 -53 95 0 95 0 0 30 c0 27 -3 30
-30 30 -25 0 -30 4 -30 25 0 19 -5 25 -22 25 -13 0 -39 3 -58 6 -19 3 -38 2
-42 -2z"/>
<path d="M17430 4330 c0 -25 4 -30 25 -30 21 0 25 5 25 30 0 25 -4 30 -25 30
-21 0 -25 -5 -25 -30z"/>
<path d="M17070 4270 c0 -27 3 -30 30 -30 27 0 30 3 30 30 0 27 -3 30 -30 30
-27 0 -30 -3 -30 -30z"/>
<path d="M17240 4210 l0 -30 90 0 90 0 0 30 0 30 -90 0 -90 0 0 -30z"/>
<path d="M25550 4035 c0 -20 5 -25 25 -25 20 0 25 5 25 25 0 20 -5 25 -25 25
-20 0 -25 -5 -25 -25z"/>
<path d="M23960 3565 c0 -20 5 -25 25 -25 20 0 25 5 25 25 0 20 -5 25 -25 25
-20 0 -25 -5 -25 -25z"/>
<path d="M23900 3505 c0 -20 5 -25 25 -25 20 0 25 5 25 25 0 20 -5 25 -25 25
-20 0 -25 -5 -25 -25z"/>
<path d="M24310 3505 c0 -21 5 -25 30 -25 25 0 30 4 30 25 0 21 -5 25 -30 25
-25 0 -30 -4 -30 -25z"/>
<path d="M19190 2975 c0 -20 5 -25 25 -25 20 0 25 5 25 25 0 20 -5 25 -25 25
-20 0 -25 -5 -25 -25z"/>
<path d="M19430 2975 c0 -24 3 -25 55 -25 52 0 55 1 55 25 0 24 -3 25 -55 25
-52 0 -55 -1 -55 -25z"/>
<path d="M22250 2975 c0 -24 3 -25 55 -25 52 0 55 1 55 25 0 24 -3 25 -55 25
-52 0 -55 -1 -55 -25z"/>
<path d="M19360 2915 c0 -21 5 -25 30 -25 25 0 30 4 30 25 0 21 -5 25 -30 25
-25 0 -30 -4 -30 -25z"/>
<path d="M16770 2265 c0 -25 1 -25 90 -25 89 0 90 0 90 25 0 25 -1 25 -90 25
-89 0 -90 0 -90 -25z"/>
<path d="M17180 2205 c0 -24 3 -25 60 -25 57 0 60 1 60 25 0 24 -3 25 -60 25
-57 0 -60 -1 -60 -25z"/>
<path d="M16780 2150 c0 -27 3 -30 30 -30 27 0 30 3 30 30 0 27 -3 30 -30 30
-27 0 -30 -3 -30 -30z"/>
<path d="M17070 2150 c0 -27 3 -30 30 -30 27 0 30 3 30 30 0 27 -3 30 -30 30
-27 0 -30 -3 -30 -30z"/>
<path d="M16720 2090 c0 -25 4 -30 25 -30 21 0 25 5 25 30 0 25 -4 30 -25 30
-21 0 -25 -5 -25 -30z"/>
<path d="M17613 2003 c43 -2 110 -2 150 0 40 1 5 3 -78 3 -82 0 -115 -2 -72
-3z"/>
</g>
</svg>
